<?xml version="1.0" encoding="utf-8"?>
<!-- Generator: Adobe Illustrator 16.0.4, SVG Export Plug-In . SVG Version: 6.00 Build 0)  -->
<!DOCTYPE svg PUBLIC "-//W3C//DTD SVG 1.1//EN" "http://www.w3.org/Graphics/SVG/1.1/DTD/svg11.dtd">
<svg version="1.1" id="usOutline" xmlns="http://www.w3.org/2000/svg" xmlns:xlink="http://www.w3.org/1999/xlink" x="0px" y="0px"
	 width="89.654px" height="69.531px" viewBox="0 0 89.654 69.531" enable-background="new 0 0 89.654 69.531" xml:space="preserve">
<path d="M89.479,68.43l-0.431-9.158h0.008L88.1,38.83l-0.016,0.002l-0.525-11.143h0.005L86.899,13.3h-0.014L86.259,0l-14.42,0.49
	l-7.874,0.215l-2.256,0.101l-2.471,0.102l-19.25,0.009l-8.005-0.037L8.338,0.417L7.611,0.248L2.557,0.067v1.655L2.323,3.937
	L2.139,8.888h0.017L1.441,29.703L0.467,55.894h-0.01L0,68.76l7.921,0.32l4.353,0.116v0.008l0.494,0.008l2.885,0.076l0.001-0.034
	l20.425,0.31h0.011l2.441-0.003v0.008l1.582-0.011l1.8-0.003v-0.008l16.262-0.098v0.017l0.911-0.021l2.469-0.014l-0.001-0.042
	l9.482-0.219v0.019l0.92-0.04l0.711-0.016h1.749l-0.002-0.085L89.479,68.43z M16.701,30.66l0.73,0.013l-0.001,0.221l0.607,2.149
	l0.936,1.233l0.128,2.123l1.457,0.11l0.668,0.649l0.867,1.244l1.813,1.717l-0.085,1.63l0.818,0.027l-0.01,2.601l0.094,1.06
	l-3.516-0.061l-10.917-0.498l0.067-2.829L9.81,42.037l0.063-2.006l0.03,0.001l0.225-7.255l0.018-0.191l0.097,0.004l0.033-0.919
	l2.788,0.103l0.04-1.429l3.314,0.104 M28.126,45.498l-0.116-1.191l0.022-5.801l-0.917-0.03l-2.356-2.158l-0.852-1.223L22.313,33.5
	l-0.027-0.452l-1.169-1.54l-0.304-1.072l0.02-3.081l-0.678-0.013l0.034-1.563l-3.498-0.119l0.066-2.603l1.41,0.651l2.924-1.308
	l0.216-0.869l1.16,1.347l0.483,0.634h0.062l0.698,0.81l-0.042,2.334l4.222,0.089l-0.008,0.718l1.4,0.014l-0.012,0.714l1.414,0.011
	l-0.005,0.473l1.417,0.016l-0.001,0.212l3.017,0.539l2.236-0.175l5.919-0.015l0.139,3.935l0.026,3.952h-0.506l0.066,8.253
	l0.228,0.122l0.001,0.11l-13.133-0.095L28.126,45.498z M31.783,20.726l0.687,0.003l-0.039,1.434l1.438,0.017l-0.009,0.958l1.85-0.02
	l0.113,0.456l2.195,0.013l-0.004,1.399l2.833,0.005l-0.002,0.889l-3.629,0.012l-1.724,0.131l0.003-0.675l-1.398-0.016l0.005-0.483
	l-1.394-0.011l0.012-0.701l-1.42-0.017l0.002-0.232l-2.827-0.492l-0.46-0.029l0.027-1.281l2.17,0.03l-0.019-1.406l1.419,0.017
	 M83.666,16.804l0.354,7.663l-6.998,0.322l-1.702,0.058l-0.251-7.655l6.537-0.312L83.666,16.804z M63.949,42.564l-0.096-3.766
	l0.047-0.289l-0.27-9.864l0.679-0.02v-0.004l7.742-0.249l0.001,0.02l1.444-0.066l0.263-0.008l0.065-0.002l0.36-0.012l0.373,10.014
	l0.07,1.114l-4.69,0.205l0.12,2.779L63.949,42.564z M74.008,54.98l-0.546-12.112l4.18-0.177l0.502,12.179l-4.119,0.11H74.008z
	 M81.582,56.19l-0.214-5.188l-0.349-8.457l3.851-0.179l0.642,13.665L81.582,56.19z M60.623,11.325l0.278,10.336l0.015,3.669
	l-9.555,0.163l-0.057-3.631l-0.247-6.252l-0.246-0.21l-0.294-3.798l-0.165-0.119l7.122-0.038L60.623,11.325z M47.765,17.921
	l0.16,4.034l0.053,3.436l-2.205,0.002l-0.001-0.001h-0.113l-0.008-2.372l-1.417,0.009l0.004-1.413l-2.833-0.005l0.004-1.384
	l-2.939-0.019l-0.124-0.5l-1.071,0.012l0.009-0.885l-1.38-0.014l0.026-0.956l8.619,0.059h0.015h0.013L47.765,17.921z M46.352,42.799
	l-0.02-2.277h0.503l-0.051-7.404l-0.153-4.34l2.644-0.005l0.255,0.133l10.723-0.182l0.26,9.569l-0.044,0.287l0.101,4.078
	l-4.873,0.119L46.352,42.799z M85.94,65.196l-8.15,0.385L74.298,65.7l-0.253-7.339l4.244-0.114l0.061,1.458l7.326-0.296
	L85.94,65.196z M84.696,38.99l-6.689,0.304v-0.015l-0.438-10.953l-0.005-0.177l6.621-0.305l0.533,11.145L84.696,38.99z
	 M83.045,3.494l0.468,9.933l-8.565,0.387l-0.326-8.184l-0.006-1.844L83.045,3.494z M71.236,3.888v0.02l0.007,1.794l0.397,10.028
	l0.301,9.233l-7.645,0.261l-0.015-3.614l-0.279-10.414l0.091-0.004l-0.074-1.625V9.559V9.556l0.102-1.746l-0.182,0.005l-0.171-3.718
	L71.236,3.888z M59.326,4.286l1.065-0.043l0.166,3.66l-0.082,0.003l-8.778,0.141L47.115,8.1l-2.719-2.187l-1.296-0.205l-0.375-0.445
	L42.47,4.298l9.6,0.053L59.326,4.286z M38.975,4.293l0.672,2.563l1.677,1.995l1.656,0.26l2.216,1.783l0.787,1.605l1.286,0.927
	l0.086,1.114l-2.748,0.004h-0.021l-10.361-0.072l0.043-4.118L34.11,4.627l-0.039-0.342L38.975,4.293z M5.761,3.54l1.247,0.039
	l0.745,0.174l22.894,0.495l0.086,0.574l0.155,5.561l-0.06,5.499l-2.557-0.025l-0.012,1.448l-1.492-0.02l0.019,1.404l-2.053-0.028
	l-0.031,1.457h-0.091l-1.225-1.607l-2.287-1.047l-2.142,1.093l-0.371-1.023l-1.692,0.114l0.074-2.893l-0.781-0.024l-0.632-2.311
	l-0.51-0.165l-0.23-0.683l-0.459-0.58l0.218-1.078L14.014,8.44L12.255,7.25l-2.182-0.074l0.049-1.354L5.646,5.644l0.047-1.468
	L5.761,3.54z M6.623,9.066l-0.049,1.371l4.416,0.152l-0.256,1.271l1.067,1.349l0.586,1.742l0.393,0.125l0.092,0.338L12.576,18
	l0.921,0.029l-0.004,0.197l-0.02,0.728l0.001,0.003l-0.199,8.013L9.82,26.861l-0.04,1.408L7.61,28.188l0.014-0.391l-2.728-0.105
	l0.565-15.596l0.084-3.072L6.623,9.066z M4.726,32.392l1.155,0.041l0.882,0.032l-0.007,0.101l-0.125,3.962l-0.424-0.016
	l-0.148,4.503l0.4,0.016l-0.136,4.289l0.576,0.018L6.834,48.09l5.87,0.295l-0.163,7.907l-8.705-0.288L4.726,32.392z M3.495,65.518
	l0.219-6.119l2.433,0.09l6.322,0.234l-0.126,6.104L3.495,65.518z M38.45,66.18l-2.345,0.003l-9.803-0.108l-10.57-0.166l0.145-6.125
	h0.009l0.031-1.669l0.04-1.711h-0.01l0.141-7.799l0.001-0.063l5.015,0.214l7.351,0.13l-0.003-0.026l14.79,0.147l0.155,6.457
	l-5.065-0.031l0.005,5.997L38.45,66.18z M58.093,66.081l-16.261,0.09l-0.113-4.78l-0.003-2.557l5.158,0.031l-0.242-8.73l-0.023-3.42
	l-0.004-0.534l9.136-0.022l4.932-0.12L61.04,59.57l-3.101,0.059L58.093,66.081z M70.918,65.797l-9.445,0.246L61.4,62.946
	l3.121-0.059l-0.405-13.611l-0.063-3.309l2.189-0.037l-0.566,1.592l3.153,0.676l1.488-0.058l0.315,6.93l-0.083,0.003l0.057,1.65
	l-0.042,1.729l0.102-0.002l0.117,3.409L70.918,65.797z"/>
</svg>
