<?xml version="1.0" encoding="utf-8"?>
<!-- Generator: Adobe Illustrator 16.0.4, SVG Export Plug-In . SVG Version: 6.00 Build 0)  -->
<!DOCTYPE svg PUBLIC "-//W3C//DTD SVG 1.1//EN" "http://www.w3.org/Graphics/SVG/1.1/DTD/svg11.dtd">
<svg version="1.1" id="usOutline" xmlns="http://www.w3.org/2000/svg" xmlns:xlink="http://www.w3.org/1999/xlink" x="0px" y="0px"
	 width="89.654px" height="69.531px" viewBox="0 0 89.654 69.531" enable-background="new 0 0 89.654 69.531" xml:space="preserve">
<path fill="#FFFFFF" d="M82.239,62.985l-0.361-7.673h0.01L81.087,38.18l-0.018,0.002l-0.438-9.347h0.005l-0.557-12.057h-0.011
	l-0.526-11.15L67.455,6.04l-6.601,0.18l-1.889,0.086L56.89,6.388L40.759,6.396l-6.711-0.03L14.227,5.98l-0.607-0.145L9.382,5.687
	v1.387L9.187,8.929L9.033,13.08h0.015L8.448,30.523L7.629,52.475H7.624L7.239,63.26l6.641,0.271l3.648,0.093v0.009l0.416,0.008
	l2.418,0.062l0.001-0.024l17.117,0.258h0.011l2.045-0.004v0.008l1.328-0.01l1.51-0.004v-0.008l13.625-0.083v0.017l0.77-0.019
	l2.071-0.009v-0.036l7.942-0.184v0.013l0.772-0.027l0.592-0.016h1.466l-0.002-0.071L82.239,62.985z M21.239,31.325l0.611,0.013
	l-0.001,0.186l0.506,1.802l0.788,1.035l0.107,1.778l1.218,0.088l0.561,0.55l0.724,1.046l1.523,1.435l-0.071,1.361l0.684,0.026
	l-0.012,2.177l0.082,0.892l-2.946-0.048l-9.151-0.421l0.058-2.369l-0.46-0.012l0.053-1.681l0.023,0.001l0.189-6.082l0.019-0.163
	l0.082,0.004l0.026-0.771l2.337,0.089l0.033-1.196l2.775,0.083 M30.812,43.759l-0.095-0.993l0.015-4.867l-0.769-0.016l-1.975-1.816
	l-0.71-1.021l-1.339-1.34l-0.021-0.375l-0.979-1.292l-0.254-0.897l0.013-2.583l-0.565-0.013l0.028-1.309l-2.932-0.098l0.053-2.186
	l1.181,0.549l2.45-1.099l0.182-0.729l0.974,1.131l0.405,0.532h0.049l0.583,0.677l-0.035,1.958l3.544,0.075l-0.009,0.604l1.174,0.008
	l-0.012,0.601l1.188,0.011l-0.006,0.395l1.185,0.011l0,0.182l2.528,0.447l1.875-0.146l4.964-0.008l0.116,3.297l0.021,3.31h-0.423
	l0.052,6.925l0.193,0.093l0.002,0.097L32.453,43.79L30.812,43.759z M33.881,23.002l0.578,0.003l-0.032,1.201l1.204,0.012
	l-0.009,0.806l1.553-0.019l0.092,0.384l1.842,0.007l-0.004,1.173l2.374,0.005l-0.002,0.748l-3.044,0.01l-1.441,0.109l0.002-0.566
	l-1.17-0.016v-0.405l-1.17-0.004l0.014-0.587l-1.19-0.017l0.002-0.196l-2.372-0.408l-0.382-0.029l0.018-1.07l1.82,0.024l-0.015-1.18
	l1.187,0.017 M77.368,19.715l0.293,6.42l-5.859,0.273l-1.431,0.045l-0.208-6.413l5.477-0.262L77.368,19.715z M60.839,41.306
	l-0.082-3.159l0.047-0.246l-0.229-8.262l0.568-0.018v-0.004l6.485-0.207v0.013l1.215-0.052l0.221-0.008l0.051-0.002l0.304-0.012
	l0.316,8.401l0.055,0.931l-3.925,0.169l0.092,2.334L60.839,41.306z M69.27,51.714l-0.461-10.155l3.506-0.146l0.429,10.206
	l-3.455,0.096H69.27z M75.617,52.726l-0.174-4.353l-0.292-7.088l3.229-0.15l0.532,11.459L75.617,52.726z M58.05,15.122l0.235,8.661
	l0.015,3.075l-8.013,0.142l-0.043-3.044l-0.205-5.241l-0.21-0.175l-0.245-3.183l-0.137-0.104l5.963-0.031L58.05,15.122z
	 M47.27,20.65l0.143,3.383l0.042,2.878l-1.852,0.002l-0.001-0.001h-0.094v-1.99l-1.19,0.009v-1.186l-2.375-0.001l0.004-1.162
	l-2.462-0.013l-0.104-0.421l-0.895,0.012l0.009-0.744l-1.161-0.014l0.025-0.8l7.218,0.051h0.017h0.013L47.27,20.65z M46.094,41.498
	l-0.019-1.909h0.419l-0.037-6.201l-0.139-3.639h2.221l0.213,0.109l8.986-0.151l0.221,8.021l-0.035,0.242l0.087,3.416l-4.081,0.1
	L46.094,41.498z M79.272,60.274l-6.827,0.327l-2.927,0.093l-0.211-6.15l3.552-0.095l0.051,1.226l6.144-0.253L79.272,60.274z
	 M78.234,38.312l-5.615,0.247v-0.002l-0.366-9.184l-0.003-0.149l5.558-0.256l0.439,9.344H78.234z M76.851,8.556l0.385,8.328
	l-7.18,0.324l-0.271-6.862L69.78,8.802L76.851,8.556z M66.952,8.887v0.019l0.007,1.504l0.326,8.403l0.259,7.741l-6.416,0.219
	l-0.015-3.029l-0.224-8.729l0.072-0.004l-0.067-1.363v-0.008v-0.003l0.088-1.463l-0.153,0.005l-0.143-3.117L66.952,8.887z
	 M56.965,9.221l0.896-0.036l0.138,3.066l-0.067,0.003l-7.364,0.119l-3.833,0.045l-2.28-1.833l-1.087-0.172l-0.315-0.372l-0.212-0.81
	l8.044,0.046L56.965,9.221z M39.908,9.228l0.564,2.146l1.403,1.676l1.388,0.217l1.861,1.494l0.661,1.344l1.074,0.778l0.072,0.931
	l-2.303,0.004h-0.017l-8.682-0.058l0.037-3.454l-0.138-4.801L35.796,9.22L39.908,9.228z M12.068,8.595l1.046,0.032l0.625,0.146
	L32.928,9.19l0.073,0.481l0.128,4.66l-0.054,4.61l-2.14-0.023l-0.014,1.215l-1.25-0.016l0.019,1.174l-1.72-0.021l-0.025,1.224
	h-0.077l-1.027-1.351l-1.918-0.879l-1.797,0.917l-0.309-0.854l-1.42,0.093l0.064-2.426l-0.654-0.017l-0.53-1.937l-0.428-0.138
	l-0.192-0.575l-0.388-0.482l0.183-0.907l-0.469-1.234l-1.472-0.999l-1.831-0.06l0.039-1.134l-3.747-0.15l0.04-1.229L12.068,8.595z
	 M12.788,13.229l-0.037,1.146l3.699,0.131l-0.215,1.065l0.896,1.131l0.491,1.459l0.33,0.104l0.075,0.282l-0.247,2.168l0.772,0.025
	l-0.004,0.166l-0.014,0.608l0.001,0.003l-0.17,6.719l-2.896-0.095l-0.033,1.182l-1.818-0.067l0.011-0.327l-2.287-0.091l0.473-13.072
	l0.07-2.571L12.788,13.229z M11.201,32.781l0.963,0.034l0.743,0.024l-0.009,0.087l-0.104,3.318l-0.353-0.016l-0.125,3.783
	l0.335,0.01l-0.113,3.588l0.484,0.018l-0.052,2.313l4.917,0.238l-0.135,6.635l-7.298-0.245L11.201,32.781z M10.169,60.54
	l0.183-5.129l2.039,0.077l5.303,0.204l-0.109,5.115L10.169,60.54z M39.468,61.104l-1.963,0.004l-8.221-0.094l-8.857-0.138
	l0.123-5.135h0.005l0.028-1.4l0.033-1.429h-0.009l0.118-6.541l0.001-0.051l4.205,0.174l6.163,0.116l-0.003-0.025l12.393,0.118
	l0.134,5.411l-4.246-0.016l0.002,5.021L39.468,61.104z M55.929,61.019l-13.626,0.076l-0.095-4.009l-0.005-2.141l4.331,0.02
	l-0.213-7.318l-0.008-2.865l-0.004-0.439l7.651-0.02l4.14-0.106l0.299,11.339l-2.595,0.059L55.929,61.019z M66.677,60.777
	l-7.913,0.203L58.7,58.392l2.625-0.057l-0.348-11.407l-0.048-2.771l1.834-0.033l-0.479,1.334l2.643,0.57l1.248-0.05l0.271,5.812
	l-0.069,0.003l0.045,1.381l-0.039,1.445l0.085-0.002l0.103,2.856L66.677,60.777z"/>
</svg>
