<?xml version="1.0" encoding="utf-8"?>
<!-- Generator: Adobe Illustrator 16.0.4, SVG Export Plug-In . SVG Version: 6.00 Build 0)  -->
<!DOCTYPE svg PUBLIC "-//W3C//DTD SVG 1.1//EN" "http://www.w3.org/Graphics/SVG/1.1/DTD/svg11.dtd">
<svg version="1.1" id="usOutline" xmlns="http://www.w3.org/2000/svg" xmlns:xlink="http://www.w3.org/1999/xlink" x="0px" y="0px"
	 width="89.654px" height="69.531px" viewBox="0 0 89.654 69.531" enable-background="new 0 0 89.654 69.531" xml:space="preserve">
<path fill="#FFFFFF" d="M89.479,68.43l-0.432-9.158h0.009L88.1,38.83l-0.017,0.002l-0.524-11.143h0.005L86.899,13.3h-0.015L86.259,0
	l-14.42,0.49l-7.874,0.215l-2.256,0.101l-2.471,0.102l-19.25,0.009L31.983,0.88L8.338,0.417L7.611,0.248L2.557,0.067v1.655
	L2.323,3.937L2.139,8.888h0.017L1.441,29.703L0.467,55.895h-0.01L0,68.76l7.921,0.32l4.354,0.115v0.009l0.494,0.008l2.885,0.076
	l0.001-0.034l20.425,0.311h0.011l2.441-0.004v0.008l1.582-0.01l1.8-0.004v-0.008l16.262-0.098v0.017l0.911-0.021l2.47-0.014
	l-0.001-0.043l9.481-0.219v0.02l0.92-0.041l0.711-0.016h1.749l-0.002-0.085L89.479,68.43z M16.701,30.66l0.73,0.013l-0.001,0.221
	l0.606,2.149l0.937,1.233l0.128,2.123l1.457,0.11l0.668,0.649l0.866,1.244l1.813,1.717l-0.085,1.63l0.818,0.026l-0.011,2.602
	l0.095,1.061l-3.517-0.062L10.29,44.878l0.067-2.829L9.81,42.037l0.062-2.006l0.03,0.001l0.225-7.255l0.019-0.191l0.097,0.004
	l0.033-0.919l2.788,0.103l0.04-1.429l3.313,0.104 M28.126,45.498l-0.116-1.191l0.022-5.801l-0.917-0.029l-2.356-2.158l-0.852-1.224
	L22.313,33.5l-0.027-0.452l-1.169-1.54l-0.304-1.072l0.02-3.081l-0.678-0.013l0.034-1.563l-3.498-0.119l0.065-2.603l1.41,0.651
	l2.924-1.308l0.217-0.869l1.159,1.347l0.483,0.634h0.062l0.697,0.81l-0.042,2.334l4.223,0.089l-0.009,0.718l1.4,0.014l-0.012,0.714
	l1.414,0.011l-0.005,0.473l1.417,0.016l-0.001,0.212l3.017,0.539l2.236-0.175l5.919-0.015l0.139,3.935l0.026,3.952h-0.507
	l0.066,8.254l0.229,0.121l0.001,0.11l-13.134-0.095L28.126,45.498z M31.783,20.726l0.688,0.003l-0.039,1.434l1.438,0.017
	l-0.009,0.958l1.85-0.02l0.113,0.456l2.195,0.013l-0.004,1.399l2.833,0.005l-0.002,0.889l-3.63,0.012l-1.724,0.131l0.003-0.675
	l-1.397-0.016l0.005-0.483l-1.395-0.011l0.013-0.701L31.3,24.12l0.002-0.232l-2.826-0.492l-0.46-0.029l0.026-1.281l2.17,0.03
	l-0.019-1.406l1.419,0.017 M83.666,16.804l0.354,7.663l-6.998,0.322l-1.702,0.058l-0.251-7.655l6.537-0.312L83.666,16.804z
	 M63.949,42.564l-0.096-3.767l0.047-0.289l-0.271-9.864l0.68-0.02v-0.004l7.741-0.249l0.001,0.02l1.444-0.066l0.263-0.008
	l0.065-0.002l0.36-0.012l0.373,10.014l0.069,1.113l-4.689,0.205l0.12,2.779L63.949,42.564z M74.008,54.98l-0.546-12.112l4.181-0.177
	l0.502,12.179l-4.119,0.11H74.008z M81.582,56.189l-0.214-5.188l-0.349-8.457l3.851-0.179l0.643,13.665L81.582,56.189z
	 M60.623,11.325l0.278,10.336l0.015,3.669l-9.555,0.163l-0.057-3.631l-0.247-6.252l-0.246-0.21l-0.294-3.798l-0.165-0.119
	l7.122-0.038L60.623,11.325z M47.765,17.921l0.159,4.034l0.054,3.436l-2.205,0.002l-0.001-0.001h-0.113l-0.008-2.372l-1.417,0.009
	l0.004-1.413l-2.833-0.005l0.004-1.384l-2.938-0.019l-0.124-0.5l-1.071,0.012l0.009-0.885l-1.38-0.014l0.026-0.956l8.618,0.059
	h0.016h0.013L47.765,17.921z M46.352,42.799l-0.021-2.277h0.503l-0.051-7.403l-0.153-4.34l2.645-0.005l0.255,0.133l10.723-0.182
	l0.261,9.569l-0.045,0.287l0.102,4.078l-4.873,0.119L46.352,42.799z M85.94,65.195l-8.15,0.386L74.298,65.7l-0.253-7.339
	l4.244-0.114l0.062,1.458l7.325-0.296L85.94,65.195z M84.696,38.99l-6.689,0.304v-0.015l-0.438-10.953l-0.005-0.177l6.621-0.305
	l0.532,11.146L84.696,38.99z M83.045,3.494l0.469,9.933l-8.565,0.387L74.622,5.63l-0.006-1.844L83.045,3.494z M71.236,3.888v0.02
	l0.007,1.794L71.64,15.73l0.301,9.233l-7.646,0.261l-0.015-3.614l-0.279-10.414l0.091-0.004l-0.073-1.625V9.559V9.556l0.102-1.746
	l-0.182,0.005l-0.171-3.718L71.236,3.888z M59.326,4.286l1.065-0.043l0.166,3.66l-0.082,0.003l-8.778,0.141L47.115,8.1l-2.719-2.187
	L43.1,5.708l-0.375-0.445L42.47,4.298l9.6,0.053L59.326,4.286z M38.975,4.293l0.672,2.563l1.677,1.995l1.656,0.26l2.216,1.783
	l0.787,1.605l1.286,0.927l0.086,1.114l-2.748,0.004h-0.021l-10.36-0.072l0.043-4.118L34.11,4.627l-0.039-0.342L38.975,4.293z
	 M5.761,3.54l1.246,0.039l0.745,0.174l22.895,0.495l0.086,0.574l0.155,5.561l-0.061,5.499l-2.557-0.025l-0.013,1.448l-1.491-0.02
	l0.019,1.404l-2.053-0.028l-0.031,1.457h-0.091l-1.225-1.607l-2.287-1.047l-2.143,1.093l-0.371-1.023l-1.691,0.114l0.073-2.893
	l-0.78-0.024l-0.632-2.311l-0.511-0.165l-0.229-0.683l-0.459-0.58l0.218-1.078l-0.56-1.474l-1.76-1.19l-2.182-0.074l0.049-1.354
	L5.646,5.644l0.047-1.468L5.761,3.54z M6.623,9.066l-0.049,1.371l4.416,0.152l-0.256,1.271l1.066,1.349l0.587,1.742l0.393,0.125
	l0.092,0.338L12.576,18l0.921,0.029l-0.004,0.197l-0.02,0.728l0.001,0.003l-0.199,8.013L9.82,26.861l-0.04,1.408l-2.17-0.081
	l0.014-0.391l-2.728-0.105l0.564-15.596l0.084-3.072L6.623,9.066z M4.726,32.392l1.154,0.041l0.883,0.032l-0.008,0.101l-0.125,3.961
	l-0.424-0.016l-0.147,4.504l0.399,0.016L6.323,45.32l0.576,0.018L6.834,48.09l5.87,0.295l-0.163,7.907l-8.705-0.288L4.726,32.392z
	 M3.495,65.518l0.219-6.119l2.434,0.091l6.322,0.233l-0.127,6.104L3.495,65.518z M38.45,66.18l-2.345,0.004l-9.804-0.108
	l-10.569-0.166l0.145-6.125h0.01l0.03-1.669l0.04-1.711h-0.01l0.141-7.799l0.001-0.063l5.016,0.214l7.351,0.13l-0.003-0.026
	l14.79,0.147l0.155,6.457l-5.065-0.03l0.005,5.996L38.45,66.18z M58.093,66.081l-16.261,0.09l-0.112-4.78l-0.004-2.557l5.158,0.031
	l-0.242-8.73l-0.022-3.42l-0.004-0.533l9.136-0.022l4.932-0.12L61.04,59.57l-3.101,0.059L58.093,66.081z M70.918,65.797
	l-9.444,0.246L61.4,62.945l3.121-0.059l-0.405-13.611l-0.062-3.309l2.188-0.037l-0.566,1.592l3.153,0.677l1.488-0.058l0.314,6.93
	l-0.083,0.003l0.058,1.649l-0.042,1.729l0.102-0.002l0.117,3.409L70.918,65.797z"/>
</svg>
