<?xml version="1.0" encoding="utf-8"?>
<!-- Generator: Adobe Illustrator 16.0.4, SVG Export Plug-In . SVG Version: 6.00 Build 0)  -->
<!DOCTYPE svg PUBLIC "-//W3C//DTD SVG 1.1//EN" "http://www.w3.org/Graphics/SVG/1.1/DTD/svg11.dtd">
<svg version="1.1" id="usOutline" xmlns="http://www.w3.org/2000/svg" xmlns:xlink="http://www.w3.org/1999/xlink" x="0px" y="0px"
	 width="79.667px" height="69.531px" viewBox="3.993 0 79.667 69.531" enable-background="new 3.993 0 79.667 69.531"
	 xml:space="preserve">
<g>
	<path fill="#FFFFFF" d="M64.166,34.963c-9.263,0-16.798,7.535-16.798,16.797c0,9.264,7.535,16.8,16.798,16.8
		c9.264,0,16.799-7.536,16.799-16.8C80.965,42.498,73.429,34.963,64.166,34.963z M64.166,64.461
		c-7.003,0-12.699-5.697-12.699-12.701c0-7.002,5.696-12.698,12.699-12.698c7.004,0,12.7,5.696,12.7,12.698
		C76.866,58.764,71.17,64.461,64.166,64.461z"/>
	<path fill="#FFFFFF" d="M48.619,38.396L37.987,11.838l-5.853,7.443C25.802,13.59,19.567,7.354,13.929,1.053L6.802,7.43
		c6.003,6.709,12.657,13.353,19.405,19.387l-5.906,7.512L48.619,38.396z"/>
</g>
</svg>
