<?xml version="1.0" encoding="utf-8"?>
<!-- Generator: Adobe Illustrator 16.0.4, SVG Export Plug-In . SVG Version: 6.00 Build 0)  -->
<!DOCTYPE svg PUBLIC "-//W3C//DTD SVG 1.1//EN" "http://www.w3.org/Graphics/SVG/1.1/DTD/svg11.dtd">
<svg version="1.1" id="usOutline" xmlns="http://www.w3.org/2000/svg" xmlns:xlink="http://www.w3.org/1999/xlink" x="0px" y="0px"
	 width="89.654px" height="69.531px" viewBox="0 0 89.654 69.531" enable-background="new 0 0 89.654 69.531" xml:space="preserve">
<g>
	<path d="M83.112,1.458L71.535,1.859l-8.966,0.247l-2.1,1.182l-2.139,0.911l-6.205,0.05l-4.851-0.052h-9.102l-2.355-0.863
		l-1.477-0.574L29.82,2.46l-0.459-0.236l-5.235-0.121L19.7,1.935l-7.349-0.097l-1.751-0.184L5.24,1.531v1.823l0.84,2.125
		l0.414,2.021l0.201,0.818l0.073,0.446l0.035,2.074L4.913,63.778l7.156,0.29l4.662,0.133l20.531,0.303l3.392,1.735l6.606,2.026
		h1.049l5.222-1.956l5.898-0.981l0.11,0.305l11.271,0.631h0.234l3.946-1.266l1.011-0.55l3.609-0.431l6.411-0.442L83.112,1.458z
		 M79.331,61.029l-4.306,0.511l-1.108,0.648l-3.3,1.059l-8.927-0.502l-0.5-1.387l-2.454,1.04l-5.842,0.973l-5.128,1.892h-0.06
		l-5.805-1.758l-3.901-1.996l-16.669-0.208l-9.159-0.233l-4.154-0.169l1.756-48.535l0.029-1.521L9.768,8.606L8.995,4.75L8.967,4.615
		l1.379,0.032l1.761,0.185L28.602,5.21l0.399,0.205l4.681,0.31L37.64,7.2h9.618l4.862,0.052L58.643,7.2h0.307l2.772-1.182
		l1.672-0.93l7.693-0.21l9.17-0.315l2.637,56.219L79.331,61.029z"/>
	<path d="M58.146,52.314c-3.875-1.098-7.92-2.604-11.915-4.446c4.776-2.17,9.363-4.76,13.243-7.654l2.569,2.663l3.039-10.583
		l-10.685,2.658l2.501,2.593c-4.292,3.133-9.587,5.933-15.004,8.175c-10.711-5.681-20.442-13.717-24.679-22.808l-3.336,1.555
		c4.199,9.008,13.298,17.023,23.562,22.959c-6.185,2.2-12.186,3.608-16.638,3.886l0.229,3.674
		c5.474-0.341,13.098-2.231,20.716-5.229c5.215,2.65,10.589,4.754,15.668,6.173l-0.725,3.595l10.435-3.513l-8.258-7.281
		L58.146,52.314z"/>
	<path d="M40.831,26.513c8.041-2.785,16.251-7.423,22.923-11.21l1.824-1.035l-1.811-3.204l-1.831,1.038
		c-6.441,3.657-14.348,8.124-21.965,10.812l-0.836-3.504l-7.996,7.568l10.552,3.142L40.831,26.513z"/>
</g>
</svg>
