<?xml version="1.0" encoding="utf-8"?>
<!-- Generator: Adobe Illustrator 16.0.4, SVG Export Plug-In . SVG Version: 6.00 Build 0)  -->
<!DOCTYPE svg PUBLIC "-//W3C//DTD SVG 1.1//EN" "http://www.w3.org/Graphics/SVG/1.1/DTD/svg11.dtd">
<svg version="1.1" id="usOutline" xmlns="http://www.w3.org/2000/svg" xmlns:xlink="http://www.w3.org/1999/xlink" x="0px" y="0px"
	 width="105.667px" height="69.1px" viewBox="0 0 105.667 69.1" enable-background="new 0 0 105.667 69.1" xml:space="preserve">
<g>
	<path d="M44.513,26.05h-4.57l-7.287-13.178V26.05h-4.342V7.147h5.827l6.03,10.829V7.147h4.342V26.05z"/>
	<path d="M48.347,26.05V7.147h12.784v3.605H53.07v3.313h7.427v3.605H53.07v4.773h8.062v3.605H48.347z"/>
	<path d="M67.974,26.05V10.752h-5.586V7.147h15.92v3.605h-5.586V26.05H67.974z"/>
	<path d="M20.348,44.752h-7.935v3.567h7.3v3.605h-7.3v8.125H7.69V41.147h12.657V44.752z"/>
	<path d="M35.417,60.05H22.798V41.147h4.748v15.298h7.871V60.05z"/>
	<path d="M54.892,50.605c0,3.056-0.817,5.459-2.451,7.211s-3.872,2.628-6.716,2.628c-2.852,0-5.091-0.887-6.716-2.659
		c-1.625-1.773-2.438-4.167-2.438-7.18c0-3.038,0.812-5.439,2.438-7.205c1.625-1.764,3.864-2.646,6.716-2.646
		c2.844,0,5.083,0.878,6.716,2.635C54.075,45.144,54.892,47.549,54.892,50.605z M49.991,50.592c0-1.126-0.116-2.084-0.349-2.876
		c-0.233-0.791-0.544-1.44-0.933-1.948c-0.406-0.517-0.865-0.887-1.377-1.11c-0.512-0.225-1.043-0.337-1.593-0.337
		c-0.584,0-1.113,0.104-1.587,0.312c-0.474,0.207-0.931,0.577-1.371,1.11c-0.389,0.491-0.705,1.143-0.946,1.955
		s-0.362,1.781-0.362,2.907c0,1.159,0.114,2.122,0.343,2.889c0.229,0.766,0.542,1.406,0.939,1.923
		c0.406,0.524,0.868,0.899,1.384,1.124c0.516,0.224,1.049,0.336,1.6,0.336c0.559,0,1.1-0.121,1.625-0.361
		c0.525-0.242,0.978-0.616,1.358-1.124c0.406-0.55,0.719-1.191,0.939-1.923C49.881,52.736,49.991,51.777,49.991,50.592z"/>
	<path d="M82.085,41.147L77.298,60.05h-5.205L69.06,48.358L66.115,60.05H60.91l-4.787-18.903h4.926l2.604,12.683l3.174-12.683h4.709
		l3.01,12.683l2.742-12.683H82.085z"/>
	<path d="M90.261,60.393c-1.447,0-2.719-0.14-3.815-0.419s-2.114-0.626-3.054-1.041v-4.494h0.432
		c0.948,0.804,1.994,1.422,3.137,1.854s2.251,0.647,3.326,0.647c0.271,0,0.628-0.029,1.072-0.089s0.802-0.152,1.072-0.279
		c0.33-0.144,0.609-0.345,0.838-0.604c0.229-0.258,0.344-0.599,0.344-1.021c0-0.474-0.187-0.859-0.559-1.155
		c-0.373-0.296-0.817-0.512-1.334-0.647c-0.643-0.169-1.33-0.33-2.062-0.482s-1.416-0.339-2.051-0.559
		c-1.464-0.517-2.514-1.21-3.148-2.082s-0.951-1.964-0.951-3.275c0-1.77,0.748-3.201,2.246-4.297
		c1.498-1.097,3.369-1.645,5.611-1.645c1.126,0,2.246,0.114,3.358,0.343s2.11,0.538,2.989,0.927v4.316h-0.418
		c-0.703-0.601-1.561-1.108-2.571-1.523c-1.011-0.414-2.05-0.622-3.116-0.622c-0.415,0-0.787,0.03-1.117,0.089
		s-0.678,0.174-1.041,0.343c-0.297,0.136-0.553,0.337-0.769,0.603c-0.216,0.268-0.323,0.565-0.323,0.896
		c0,0.482,0.171,0.865,0.514,1.149c0.343,0.283,1.005,0.539,1.986,0.768c0.635,0.144,1.246,0.283,1.835,0.419
		s1.217,0.321,1.886,0.559c1.312,0.474,2.287,1.11,2.926,1.911c0.639,0.799,0.959,1.855,0.959,3.167c0,1.879-0.738,3.39-2.216,4.532
		S92.775,60.393,90.261,60.393z"/>
</g>
</svg>
