<?xml version="1.0" encoding="utf-8"?>
<!-- Generator: Adobe Illustrator 16.0.4, SVG Export Plug-In . SVG Version: 6.00 Build 0)  -->
<!DOCTYPE svg PUBLIC "-//W3C//DTD SVG 1.1//EN" "http://www.w3.org/Graphics/SVG/1.1/DTD/svg11.dtd">
<svg version="1.1" id="usOutline" xmlns="http://www.w3.org/2000/svg" xmlns:xlink="http://www.w3.org/1999/xlink" x="0px" y="0px"
	 width="105.667px" height="69.1px" viewBox="3.993 0 105.667 69.1" enable-background="new 3.993 0 105.667 69.1"
	 xml:space="preserve">
<g>
	<path d="M41.584,23.106V6.61h4.356l3.427,6.045c0.979,1.738,1.958,3.793,2.692,5.654h0.073c-0.245-2.179-0.318-4.406-0.318-6.878
		V6.61h3.427v16.496h-3.916l-3.524-6.363c-0.979-1.763-2.056-3.892-2.864-5.825l-0.073,0.024c0.099,2.178,0.147,4.503,0.147,7.196
		v4.968H41.584z"/>
	<path d="M68.288,16.131h-6.069v3.916h6.779v3.06H58.473V6.61h10.182v3.059h-6.437v3.427h6.069V16.131z"/>
	<path d="M74.848,9.743h-4.43V6.61h12.678v3.133h-4.503v13.363h-3.745V9.743z"/>
</g>
<g>
	<path d="M44.764,47.575h-4.43v-3.133h12.678v3.133H48.51v13.363h-3.745V47.575z"/>
	<path d="M69.388,52.52c0,5.408-3.28,8.688-8.102,8.688c-4.896,0-7.759-3.696-7.759-8.396c0-4.943,3.157-8.64,8.028-8.64
		C66.623,44.173,69.388,47.967,69.388,52.52z M57.469,52.739c0,3.23,1.518,5.507,4.015,5.507c2.521,0,3.965-2.398,3.965-5.604
		c0-2.962-1.42-5.507-3.99-5.507C58.937,47.135,57.469,49.533,57.469,52.739z"/>
	<path d="M74.334,47.575h-4.43v-3.133h12.678v3.133h-4.503v13.363h-3.745V47.575z"/>
	<path d="M86.646,56.704l-1.175,4.234h-3.867l5.042-16.496h4.895l5.116,16.496h-4.015l-1.272-4.234H86.646z M90.832,53.914
		l-1.028-3.5c-0.294-0.979-0.588-2.203-0.832-3.182h-0.049c-0.245,0.979-0.49,2.228-0.759,3.182l-0.979,3.5H90.832z"/>
	<path d="M98.861,44.442h3.745v13.363h6.559v3.133H98.861V44.442z"/>
</g>
<path d="M19.96,30.871c-8.49,0-15.397-6.906-15.397-15.395c0-8.489,6.907-15.396,15.397-15.396c8.488,0,15.393,6.906,15.393,15.396
	C35.353,23.964,28.448,30.871,19.96,30.871z M19.96,2.411c-7.205,0-13.066,5.861-13.066,13.064S12.755,28.54,19.96,28.54
	c7.202,0,13.062-5.86,13.062-13.064S27.162,2.411,19.96,2.411z"/>
<path d="M19.96,68.704c-8.49,0-15.397-6.906-15.397-15.396s6.907-15.396,15.397-15.396c8.488,0,15.393,6.906,15.393,15.396
	S28.448,68.704,19.96,68.704z M19.96,40.245c-7.205,0-13.066,5.86-13.066,13.063s5.862,13.063,13.066,13.063
	c7.202,0,13.062-5.86,13.062-13.063S27.162,40.245,19.96,40.245z"/>
<circle cx="19.958" cy="15.476" r="8.201"/>
</svg>
