<?xml version="1.0" encoding="utf-8"?>
<!-- Generator: Adobe Illustrator 16.0.4, SVG Export Plug-In . SVG Version: 6.00 Build 0)  -->
<!DOCTYPE svg PUBLIC "-//W3C//DTD SVG 1.1//EN" "http://www.w3.org/Graphics/SVG/1.1/DTD/svg11.dtd">
<svg version="1.1" id="usOutline" xmlns="http://www.w3.org/2000/svg" xmlns:xlink="http://www.w3.org/1999/xlink" x="0px" y="0px"
	 width="83.278px" height="65.667px" viewBox="-3.278 -2.667 83.278 65.667" enable-background="new -3.278 -2.667 83.278 65.667"
	 xml:space="preserve">
<path d="M75.411,58.38L61.17,33.568l-4.755,8.188c-7.065-4.75-14.11-10.052-20.575-15.504l-6.166,7.311
	c6.883,5.805,14.4,11.453,21.926,16.483l-4.799,8.265L75.411,58.38z"/>
<path d="M16.797,0C7.534,0,0,7.535,0,16.797c0,9.264,7.534,16.801,16.797,16.801c9.265,0,16.799-7.537,16.799-16.801
	C33.596,7.535,26.061,0,16.797,0z M16.797,29.498c-7.002,0-12.699-5.697-12.699-12.701C4.098,9.795,9.795,4.1,16.797,4.1
	c7.004,0,12.701,5.695,12.701,12.697C29.498,23.801,23.801,29.498,16.797,29.498z"/>
</svg>
