<?xml version="1.0" encoding="utf-8"?>
<!-- Generator: Adobe Illustrator 16.0.4, SVG Export Plug-In . SVG Version: 6.00 Build 0)  -->
<!DOCTYPE svg PUBLIC "-//W3C//DTD SVG 1.1//EN" "http://www.w3.org/Graphics/SVG/1.1/DTD/svg11.dtd">
<svg version="1.1" id="usOutline" xmlns="http://www.w3.org/2000/svg" xmlns:xlink="http://www.w3.org/1999/xlink" x="0px" y="0px"
	 width="87.5px" height="69.1px" viewBox="5.16 0 87.5 69.1" enable-background="new 5.16 0 87.5 69.1" xml:space="preserve">
<polygon points="90.884,62.913 90.77,60.306 90.684,58.474 90.684,58.473 90.552,55.749 90.512,54.964 90.45,53.62 90.306,50.635 
	90.221,48.784 90.212,48.552 90.039,44.83 89.846,40.849 89.768,39.067 89.756,38.763 89.478,32.874 89.256,28.267 89.11,25.273 
	89.09,24.865 89.047,23.985 88.827,19.287 88.617,14.705 88.592,14.079 88.542,12.971 88.305,7.856 88.217,5.938 87.979,1.062 
	77.08,1.439 76.934,1.444 76.502,1.457 67.812,1.694 65.821,2.47 63.134,3.266 63.132,3.266 56.09,3.323 50.879,3.266 44.57,3.266 
	43.604,3.266 40.775,3.266 37.936,2.572 36.575,2.217 31.614,1.976 31.153,1.78 25.853,1.681 23.332,1.592 21.12,1.517 
	17.414,1.459 13.127,1.416 11.74,1.209 8.327,1.116 8.327,1.124 8.327,3.26 8.327,5.519 8.327,6.461 8.627,7.122 8.762,9.533 
	8.777,11.117 8.659,15.27 8.611,17.369 8.581,18.567 8.453,22.089 8.349,25.07 8.245,28.031 8.103,31.918 8.072,32.754 
	8.038,33.641 7.901,37.503 7.753,40.846 7.638,43.459 7.44,49.012 7.21,55.745 7.203,55.973 7.079,59.241 7.018,60.983 
	6.877,65.032 12.964,65.279 17.987,65.422 18.866,65.444 19.441,65.458 22.869,65.531 28.456,65.602 30.867,65.645 40.479,65.752 
	44.475,66.526 51.102,67.266 51.7,67.266 57.202,66.47 63.69,66.024 64.936,65.814 65.262,66.679 76.251,67.266 76.253,67.266 
	80.265,66.168 81.323,65.645 85.631,65.179 90.969,64.833 "/>
</svg>
