<?xml version="1.0" encoding="utf-8"?>
<!-- Generator: Adobe Illustrator 16.0.4, SVG Export Plug-In . SVG Version: 6.00 Build 0)  -->
<!DOCTYPE svg PUBLIC "-//W3C//DTD SVG 1.1//EN" "http://www.w3.org/Graphics/SVG/1.1/DTD/svg11.dtd">
<svg version="1.1" id="usOutline" xmlns="http://www.w3.org/2000/svg" xmlns:xlink="http://www.w3.org/1999/xlink" x="0px" y="0px"
	 width="87.5px" height="69.1px" viewBox="0 0 87.5 69.1" enable-background="new 0 0 87.5 69.1" xml:space="preserve">
<polygon points="79.851,58.781 79.747,56.551 79.677,54.979 79.677,54.978 79.564,52.644 79.536,51.977 79.476,50.822 
	79.355,48.262 79.281,46.683 79.272,46.486 79.123,43.295 78.965,39.893 78.897,38.359 78.887,38.102 78.646,33.057 78.458,29.117 
	78.335,26.552 78.315,26.201 78.272,25.449 78.088,21.424 77.914,17.504 77.89,16.967 77.849,16.017 77.638,11.64 77.567,9.994 
	77.357,5.821 68.03,6.144 67.907,6.149 67.535,6.162 60.098,6.364 58.388,7.028 56.091,7.709 56.089,7.709 50.062,7.758 
	45.596,7.709 40.196,7.709 39.37,7.709 36.944,7.709 34.519,7.113 33.353,6.811 29.104,6.605 28.709,6.439 24.171,6.351 
	22.011,6.274 20.117,6.211 16.942,6.162 13.275,6.127 12.089,5.95 9.167,5.869 9.167,5.878 9.167,7.706 9.167,9.64 9.167,10.447 
	9.419,11.013 9.537,13.076 9.552,14.429 9.451,17.986 9.409,19.784 9.382,20.811 9.274,23.824 9.182,26.377 9.097,28.911 
	8.972,32.243 8.946,32.955 8.918,33.718 8.799,37.019 8.675,39.89 8.573,42.125 8.403,46.875 8.208,52.64 8.201,52.832 8.096,55.64 
	8.046,57.121 7.923,60.593 13.136,60.803 17.433,60.923 18.188,60.945 18.68,60.959 21.616,61.021 26.397,61.079 28.464,61.122 
	36.696,61.206 40.112,61.873 45.786,62.507 46.299,62.507 51.011,61.829 56.563,61.442 57.633,61.268 57.912,62.003 67.318,62.507 
	67.32,62.507 70.755,61.563 71.661,61.122 75.353,60.716 79.923,60.425 "/>
</svg>
