<?xml version="1.0" encoding="utf-8"?>
<!-- Generator: Adobe Illustrator 16.0.4, SVG Export Plug-In . SVG Version: 6.00 Build 0)  -->
<!DOCTYPE svg PUBLIC "-//W3C//DTD SVG 1.1//EN" "http://www.w3.org/Graphics/SVG/1.1/DTD/svg11.dtd">
<svg version="1.1" id="usOutline" xmlns="http://www.w3.org/2000/svg" xmlns:xlink="http://www.w3.org/1999/xlink" x="0px" y="0px"
	 width="110.559px" height="69.239px" viewBox="39.272 104.981 110.559 69.239"
	 enable-background="new 39.272 104.981 110.559 69.239" xml:space="preserve">
<polygon points="149.722,110.391 149.68,110.246 149.555,110.191 149.374,110.002 149.317,109.909 149.232,109.815 149.095,109.725 
	149.012,109.735 148.876,109.737 148.878,109.87 148.829,109.955 148.712,109.921 148.511,109.748 148.436,109.699 148.435,109.603 
	148.413,109.392 148.231,109.237 148.196,109.116 148.292,109.06 148.206,108.887 148.117,108.828 147.991,108.911 147.799,108.917 
	147.714,108.926 147.603,108.829 147.447,108.902 147.447,108.899 147.426,108.751 147.335,108.639 147.351,108.487 
	147.242,108.417 147.28,108.254 147.208,108.225 145.974,105.375 145.752,105.313 145.564,105.164 145.465,105.142 145.267,105.065 
	145.104,105.01 144.993,104.981 144.87,104.992 144.717,105.053 144.71,105.142 144.761,105.224 144.628,105.299 144.538,105.306 
	144.419,105.401 144.427,105.495 144.316,105.562 144.133,105.72 144.01,105.884 143.866,105.843 143.709,105.812 143.547,105.484 
	143.525,105.361 143.396,105.375 143.301,105.369 143.188,105.398 142.67,107.875 142.841,108.593 142.776,108.752 142.727,108.841 
	142.678,108.948 142.712,109.028 142.681,109.085 142.68,109.377 142.811,109.453 142.806,109.578 142.776,109.707 142.8,109.823 
	142.845,109.864 142.864,109.966 142.945,109.932 142.997,109.998 143.027,110.111 142.942,110.254 142.872,110.416 
	142.861,110.486 142.967,110.596 142.888,110.718 142.74,110.883 142.74,110.883 142.71,111.005 142.641,111.127 142.607,111.242 
	142.598,111.403 142.739,111.519 142.831,111.555 142.876,111.668 142.79,111.67 142.694,111.692 142.622,111.635 142.574,111.646 
	142.527,111.755 142.583,111.803 142.595,111.902 142.642,111.971 142.629,112.049 142.654,112.193 142.565,112.214 
	142.476,112.081 142.377,112.015 142.254,112.024 142.241,112.125 142.167,112.173 142.146,112.25 142.13,112.371 142.056,112.404 
	141.922,112.376 141.821,112.315 141.609,112.581 141.706,112.664 141.714,112.922 141.664,113.057 141.712,113.203 
	139.894,113.891 139.802,113.914 136.876,114.99 136.195,115.197 135.962,115.299 135.781,115.289 135.675,115.414 135.528,115.479 
	135.521,115.536 135.434,115.646 135.153,115.944 135.054,116.124 134.931,116.306 134.504,117.131 134.463,117.27 134.454,117.414 
	134.302,117.671 134.209,117.704 134.07,117.884 133.967,117.97 133.995,118.079 133.936,118.168 133.799,118.241 133.74,118.37 
	133.727,118.464 133.724,118.559 133.762,118.626 133.769,118.742 133.898,118.72 133.991,118.843 133.783,119.04 133.761,119.168 
	133.918,119.15 134.048,119.154 134.214,119.255 134.283,119.378 134.394,119.641 134.439,119.84 134.415,119.979 134.272,120.07 
	134.17,120.062 134.167,120.064 134.083,120.102 133.769,120.504 133.714,120.694 133.583,120.83 133.457,120.905 133.276,121.057 
	133.187,121.081 132.932,121.116 132.688,121.211 132.541,121.244 132.264,121.41 132.181,121.475 131.941,121.41 131.712,121.31 
	131.604,121.334 131.254,121.371 131.253,121.371 130.965,121.423 130.214,121.647 129.71,121.931 129.302,122.195 129.363,122.293 
	129.425,122.47 129.415,122.553 129.42,122.684 129.534,122.687 129.564,122.704 129.579,122.876 129.714,122.944 129.782,122.94 
	129.831,122.982 129.856,123.107 129.926,123.143 130.037,123.326 129.966,123.474 129.858,123.587 129.731,123.697 
	129.732,123.822 129.663,123.929 129.644,124.071 129.552,124.148 129.402,124.285 129.243,124.452 129.143,124.634 
	128.865,124.949 128.505,125.292 128.37,125.404 128.213,125.568 128.211,125.568 128.075,125.575 127.998,125.659 127.985,125.761 
	127.695,126.054 127.255,126.382 126.86,126.612 126.691,126.767 126.414,126.915 126.188,127.116 126.003,127.233 125.836,127.42 
	125.719,127.609 125.454,127.974 125.278,128.159 125.133,128.172 124.885,128.24 124.761,128.204 124.417,128.399 124.27,128.546 
	124.088,128.598 123.916,128.748 123.77,128.766 123.584,128.703 123.409,128.563 123.323,128.443 123.069,128.371 123.025,128.412 
	122.912,128.608 122.705,128.537 122.608,128.448 122.256,128.386 122.039,128.272 121.881,128.333 121.772,128.241 
	121.827,128.207 121.756,128.034 121.822,127.897 121.915,127.803 121.922,127.677 122.025,127.616 122.102,127.463 
	122.128,127.281 122.211,127.164 122.164,126.934 122.174,126.611 122.361,126.454 122.476,126.375 122.525,126.09 122.525,126.089 
	122.498,125.846 122.497,125.843 122.633,125.75 122.776,125.66 122.857,125.82 123.023,125.695 123.12,125.443 123.131,125.094 
	123.056,124.761 123.099,124.572 123.092,124.424 122.902,124.196 122.762,123.885 122.618,123.369 122.425,122.968 122.3,122.556 
	122.207,122.321 121.997,122.042 121.796,121.877 121.515,121.809 121.347,121.913 121.322,122 121.167,122.095 120.938,122.198 
	120.918,122.301 120.692,122.399 120.663,122.501 120.593,122.936 120.343,123.384 120.235,123.315 120.043,123.215 
	119.869,123.253 119.763,123.101 119.776,122.982 119.75,122.666 119.793,122.47 119.935,122.374 120.112,122.327 120.113,122.195 
	120.282,122.104 120.26,121.833 120.284,121.536 120.437,121.493 120.494,121.38 120.599,121.272 120.551,120.856 120.489,120.529 
	120.515,120.3 120.439,120.124 120.328,119.809 120.265,119.806 120.074,119.694 120.047,119.536 120.007,119.402 120.076,119.334 
	120.202,119.388 120.348,119.398 120.192,119.117 119.977,118.92 119.99,118.787 119.752,118.609 119.55,118.661 119.345,118.582 
	119.057,118.533 118.904,118.424 118.553,118.463 118.465,118.316 118.302,118.169 118.033,118.104 117.875,118.121 
	117.796,118.184 117.256,117.943 117.151,117.931 116.997,118.063 116.721,118.093 116.838,118.275 116.694,118.432 116.622,118.64 
	116.665,118.763 116.834,118.965 116.949,118.964 117.085,118.992 117.017,119.099 116.845,119.164 116.583,119.223 
	116.421,119.375 116.301,119.522 116.328,119.766 116.393,119.973 116.394,120.125 116.244,120.305 116.167,120.366 
	116.048,120.196 116.048,119.827 115.996,119.744 115.861,119.878 115.809,120.104 115.707,120.236 115.678,120.443 
	115.558,120.574 115.398,120.518 115.336,120.702 115.187,120.714 115.214,120.956 115.208,121.178 115.08,121.236 114.927,121.343 
	114.939,121.481 115.04,121.688 115.024,121.921 115.056,122.141 115.049,122.296 114.844,122.951 114.709,123.144 114.75,123.236 
	114.847,123.36 114.847,123.36 114.899,123.497 114.966,123.698 114.97,123.888 114.877,124.104 114.842,124.258 114.887,124.392 
	115.018,124.584 115.113,124.797 115.234,125.034 115.474,125.388 115.644,125.666 115.741,125.911 115.812,126.187 
	115.876,126.508 115.913,127.115 115.891,127.519 115.812,127.918 115.647,128.275 115.6,128.42 115.48,128.897 115.327,129.15 
	115.098,129.394 114.944,129.51 114.73,129.688 114.287,129.907 114.076,129.915 113.953,129.773 113.849,129.831 113.729,129.752 
	113.723,129.71 113.7,129.647 113.634,129.609 113.505,129.412 113.481,129.345 113.481,129.308 113.48,129.284 113.453,129.258 
	113.45,129.251 113.314,128.937 113.27,128.816 113.132,128.693 113.131,128.693 113.131,128.693 112.985,128.497 112.88,128.256 
	112.884,128.091 112.895,127.927 112.873,127.735 112.813,127.505 112.785,127.332 112.82,127.171 112.823,126.94 112.662,126.768 
	112.612,126.536 112.48,126.359 112.511,126.221 112.428,126.065 112.378,125.575 112.427,125.257 112.491,125.05 112.469,124.861 
	112.584,124.524 112.563,124.408 112.561,124.287 112.493,124.179 112.449,124.012 112.52,123.431 112.603,123.281 112.708,123.188 
	112.749,123.042 112.701,122.914 112.631,122.756 112.663,122.37 112.709,122.018 112.776,121.884 112.874,121.484 112.929,121.305 
	113.038,121.143 113.045,120.971 113.11,120.784 113.224,120.582 113.233,120.428 113.214,120.288 113.318,120.16 113.293,119.99 
	113.216,119.979 113.143,120.009 113.062,120.12 113.059,120.25 112.974,120.365 112.858,120.399 112.845,120.637 112.739,120.84 
	112.665,121.069 112.585,121.214 112.462,121.279 112.438,121.316 112.345,121.346 112.244,121.507 112.133,121.728 
	112.148,121.811 112.104,121.89 112.065,121.972 111.903,122.081 111.856,122.182 111.789,122.314 111.668,122.306 111.587,122.227 
	111.652,122.116 111.625,121.971 111.637,121.814 111.703,121.707 111.748,121.528 111.826,121.409 111.85,121.361 111.82,121.228 
	111.866,121.139 112.077,121.051 112.201,121.025 112.181,120.841 112.228,120.696 112.265,120.426 112.388,120.183 
	112.545,119.789 112.77,119.056 112.934,118.873 113.151,118.963 113.363,118.792 113.444,118.534 113.713,118.706 113.625,118.835 
	113.647,119.052 113.818,119.212 113.82,118.996 113.92,118.738 114.085,118.566 114.219,118.341 114.301,118.029 114.67,117.901 
	114.984,117.972 115.146,117.776 115.363,117.792 115.441,117.713 115.593,117.421 115.885,117.361 116.322,117.366 
	116.617,117.434 116.813,117.604 117.079,117.753 117.243,117.749 117.162,117.603 117.326,117.45 117.447,117.436 117.592,117.324 
	117.807,117.408 118.017,117.3 118.329,117.196 118.643,117.147 118.859,117.181 119.117,117.106 119.27,117.156 119.372,117.127 
	119.413,116.903 119.145,116.699 118.739,116.731 118.653,116.933 118.464,116.862 118.341,116.749 118.156,116.668 
	118.133,116.487 118.144,116.442 118.006,116.149 117.967,115.755 117.817,115.723 117.662,115.884 117.427,115.908 
	117.326,116.096 117.108,116.093 116.964,116.036 116.667,116.169 116.44,116.168 116.295,115.981 116.232,115.658 116.298,115.376 
	115.925,115.472 115.778,115.527 115.406,115.798 114.749,115.894 114.477,115.984 114.216,116.032 113.686,116.457 113.537,116.66 
	113.389,116.558 113.254,116.521 113.188,116.741 113.09,116.838 112.914,116.822 112.752,116.683 112.402,116.819 112.047,116.85 
	111.989,116.659 111.738,116.514 111.579,116.338 111.512,116.178 111.32,116.046 111.142,115.978 110.903,115.924 110.6,115.945 
	110.437,115.838 110.269,115.965 110.058,116.153 109.875,116.239 109.887,116.038 109.982,115.802 110.035,115.586 
	110.193,115.401 110.248,115.202 110.53,114.894 110.65,114.794 110.63,114.648 110.884,114.604 111.239,114.559 111.247,114.46 
	111.074,114.4 110.849,114.387 110.616,114.408 110.339,114.477 110.108,114.566 109.776,114.828 109.659,115.058 109.527,115.217 
	109.333,115.347 109.029,115.675 108.987,115.841 108.936,115.94 108.812,115.977 108.611,116.049 108.482,116.264 108.165,116.494 
	108.012,116.521 107.887,116.564 107.756,116.599 107.612,116.604 107.416,116.701 107.28,116.893 107.071,117.115 106.732,117.276 
	106.572,117.342 106.419,117.474 106.385,117.49 106.25,117.43 106.142,117.456 105.792,117.204 105.773,117.331 105.707,117.397 
	105.646,117.428 105.529,117.531 105.421,117.518 105.455,117.447 105.475,117.333 105.577,117.208 105.513,117.106 
	105.541,117.033 105.637,116.865 105.713,116.663 105.587,116.556 105.352,116.411 105.239,116.477 105.265,116.628 
	105.091,116.773 105.014,116.808 104.954,116.883 104.867,116.833 104.793,116.922 104.689,116.961 104.613,117.047 104.522,117.08 
	104.349,117.187 104.232,117.199 104.108,117.273 103.8,117.427 103.676,117.439 103.54,117.474 103.435,117.419 103.323,117.165 
	103.404,117.076 103.585,116.902 103.755,116.769 103.87,116.624 104.027,116.488 104.138,116.304 104.337,116.149 104.451,116.006 
	104.65,115.733 104.829,115.436 105.029,115.186 105.28,114.907 105.498,114.698 105.647,114.594 105.832,114.444 106.03,114.333 
	106.437,114.166 106.633,114.051 106.802,113.977 106.882,113.881 107.106,113.772 107.197,113.688 107.323,113.581 
	107.503,113.493 107.607,113.371 107.365,113.411 107.139,113.408 106.937,113.525 106.738,113.467 106.614,113.299 
	106.415,113.257 106.094,113.319 105.818,113.347 105.643,113.323 105.405,113.423 105.268,113.368 105.199,113.224 
	105.108,113.056 104.997,113.085 104.782,113.24 104.581,113.396 104.43,113.566 104.279,113.623 104.049,113.655 103.915,113.706 
	103.869,113.562 103.626,113.557 103.563,113.346 103.444,113.355 103.232,113.275 103.073,113.264 103.018,113.07 102.91,112.978 
	102.717,112.986 102.541,113.026 102.49,113.115 102.502,113.238 102.478,113.343 102.386,113.407 102.282,113.212 102.171,113.07 
	102.179,112.899 102.065,112.818 101.959,112.848 101.807,112.791 101.842,112.676 101.827,112.583 101.662,112.608 
	101.352,112.485 101.235,112.396 100.903,112.443 100.784,112.406 100.538,112.469 100.5,112.531 100.338,112.581 100.343,112.705 
	100.178,112.764 99.98,112.814 99.727,112.807 99.735,112.687 99.654,112.533 99.505,112.54 98.925,112.515 98.917,112.441 
	98.858,112.387 98.667,112.382 98.567,112.441 98.455,112.429 98.252,112.342 98.109,112.211 98.115,112.073 98.111,111.955 
	98.026,111.646 97.971,111.649 97.953,111.38 97.905,111.315 97.848,111.077 97.795,110.792 97.684,110.766 97.548,110.678 
	97.483,110.682 97.364,110.732 97.192,110.658 97.257,111.698 92.301,111.908 86.667,111.945 77.833,111.542 69.674,110.677 
	61.886,109.387 52.428,107.19 48.978,106.203 48.823,106.331 48.823,106.497 48.891,106.645 48.874,106.779 48.837,106.959 
	48.847,107.343 48.788,107.491 48.681,107.611 48.673,107.781 48.523,108.024 48.402,108.146 48.42,108.34 48.531,108.459 
	48.549,108.614 48.472,108.818 48.556,108.941 48.526,109.016 48.374,109.09 48.311,109.083 48.265,108.922 48.372,108.583 
	48.297,108.447 48.166,108.433 47.944,108.468 47.838,108.459 47.756,108.349 47.666,108.164 47.458,108.266 47.326,108.238 
	47.117,108.144 46.953,108.016 46.755,107.922 46.399,107.817 46.124,107.681 46.069,107.551 45.856,107.346 45.652,107.224 
	45.431,106.954 45.282,106.799 45.155,106.771 45.174,107.036 45.073,107.223 44.964,107.379 44.976,107.54 44.937,107.669 
	44.887,107.896 44.902,108.121 45.005,108.301 45.063,108.521 45.102,108.75 45.077,109.16 44.982,109.675 45.069,109.899 
	45.046,110.216 45.045,110.262 44.945,110.699 44.87,110.87 44.926,110.947 44.913,111.215 44.886,111.424 45.054,111.537 
	45.112,111.673 45.017,111.747 44.821,111.702 44.732,112.067 44.583,112.497 44.507,112.644 44.723,112.643 44.738,112.688 
	44.792,112.795 44.847,112.829 45.004,112.752 45.08,112.8 45.208,112.753 45.232,112.871 45.442,112.957 45.35,113.016 
	45.208,113.008 45.084,113.048 45.034,112.963 44.874,112.973 44.733,112.966 44.627,112.773 44.521,112.848 44.62,113.039 
	44.593,113.315 44.526,113.48 44.402,113.529 44.417,113.645 44.372,113.833 44.295,114.038 44.308,114.18 44.271,114.303 
	44.178,114.551 44.066,114.731 44.048,114.895 43.948,115.101 43.924,115.287 43.855,115.447 43.794,115.632 43.654,115.869 
	43.551,116.116 43.34,116.484 43.284,116.738 43.225,116.922 43.087,117.255 43.018,117.478 42.859,117.798 42.826,117.935 
	42.702,118.27 42.498,118.76 42.257,119.271 42.066,119.637 41.872,119.922 41.675,120.128 41.555,120.207 41.563,120.301 
	41.307,120.789 41.128,121.076 40.907,121.324 40.903,121.625 40.983,121.779 40.968,121.814 41.024,121.884 41,122.049 
	40.958,122.201 40.812,122.44 40.762,122.677 40.755,122.802 40.71,122.951 40.744,123.028 40.75,123.163 40.729,123.302 
	40.751,123.486 40.817,123.57 40.893,123.728 40.864,123.884 40.76,124.122 40.67,124.248 40.73,124.427 40.794,124.468 
	40.8,124.526 40.791,124.752 40.794,124.985 40.749,125.28 40.577,125.661 40.444,125.899 40.325,126.009 40.305,126.149 
	40.332,126.268 40.3,126.427 40.077,126.774 39.696,127.182 39.412,127.536 39.317,127.697 39.355,127.89 39.346,128.011 
	39.272,128.189 39.299,128.246 39.42,128.454 39.518,128.637 39.601,128.703 39.676,128.834 39.669,128.995 39.728,129.035 
	39.819,129.322 39.869,129.506 39.956,129.621 39.919,129.92 39.963,130.044 39.938,130.215 39.919,130.404 39.746,130.655 
	39.662,130.874 39.649,131.124 39.658,131.348 39.697,131.554 39.683,131.845 39.551,131.994 39.565,132.117 39.637,132.254 
	39.659,132.342 39.76,132.502 39.834,132.684 39.95,132.838 40.062,133.163 40.076,133.255 40.203,133.447 40.346,133.591 
	40.45,133.86 40.446,134.016 40.451,134.119 40.549,134.154 40.569,134.227 40.542,134.32 40.567,134.503 40.509,134.664 
	40.331,134.922 40.398,134.973 40.496,134.889 40.655,134.978 40.748,135.118 40.807,135.25 40.884,135.391 40.942,135.371 
	41.078,135.498 41.178,135.653 41.286,135.693 41.437,135.662 41.402,135.538 41.344,135.441 41.37,135.321 41.463,135.264 
	41.392,135.143 41.46,134.947 41.674,134.912 41.683,134.91 41.844,135.063 41.888,135.227 41.74,135.302 41.642,135.281 
	41.625,135.36 41.492,135.387 41.553,135.546 41.646,135.562 41.655,135.787 41.581,135.823 41.601,135.921 41.71,136.013 
	41.697,136.091 41.752,136.185 41.835,136.294 41.835,136.296 41.838,136.372 41.816,136.532 41.848,136.69 41.716,136.723 
	41.596,136.538 41.381,136.381 41.39,136.059 41.459,136.057 41.479,136.021 41.445,135.987 41.462,135.844 41.446,135.798 
	41.305,135.772 41.19,135.823 41.164,136.055 41.114,136.251 41.046,136.334 41.012,136.479 41.04,136.568 41.117,136.677 
	41.104,136.746 41.134,136.926 41.125,137.031 41.031,137.254 41.034,137.428 41.115,137.572 41.14,137.66 41.209,137.718 
	41.24,137.809 41.313,137.994 41.483,138.204 41.643,138.262 41.813,138.25 41.905,138.283 41.973,138.406 42.044,138.753 
	41.911,139.089 41.769,139.252 41.652,139.155 41.521,139.265 41.519,139.538 41.54,139.803 41.512,140.051 41.603,140.247 
	41.691,140.311 41.861,140.529 41.941,140.737 41.994,140.96 42.077,141.012 42.146,141.154 42.143,141.391 42.234,141.53 
	42.353,141.734 42.347,141.928 42.408,142.075 42.612,142.216 42.684,142.413 42.852,142.768 42.949,142.812 43.085,142.913 
	43.091,143.108 43.014,143.275 42.949,143.388 43.03,143.53 43.197,143.696 43.296,143.677 43.366,143.759 43.432,143.858 
	43.418,143.981 43.383,144.099 43.227,144.42 43.329,144.574 43.224,144.883 43.244,144.909 43.249,145.018 43.089,145.288 
	43.123,145.372 43.214,145.387 43.272,145.441 43.344,145.515 43.429,145.747 43.781,145.769 44.115,145.843 44.303,145.922 
	44.464,146.008 44.655,146.154 44.742,146.156 44.85,146.181 45.005,146.276 45.065,146.254 45.219,146.256 45.377,146.364 
	45.53,146.46 45.686,146.644 45.797,146.796 45.878,146.878 45.884,146.99 45.92,147.142 46.14,147.379 46.225,147.41 
	46.453,147.58 46.664,147.667 46.754,147.779 46.902,147.727 47.046,147.757 47.215,147.778 47.392,147.85 47.49,148.034 
	47.551,148.283 47.55,148.503 47.459,148.565 47.509,148.684 47.599,148.714 47.671,148.784 47.795,148.836 47.977,148.786 
	48.097,148.766 48.181,148.849 48.337,149.091 48.474,149.256 48.649,149.382 48.854,149.675 48.868,149.741 49.012,149.826 
	49.095,149.993 49.191,150.072 49.369,150.376 49.504,150.681 49.573,150.902 49.61,151.134 49.615,151.444 49.592,151.551 
	49.591,151.551 49.572,151.575 49.548,151.564 49.524,151.592 49.519,151.639 49.56,151.744 49.517,151.975 49.523,152.061 
	49.642,152.032 49.696,152.09 49.743,152.246 49.729,152.476 55.201,153.007 55.071,153.173 54.958,153.242 54.97,153.309 
	54.925,153.379 54.961,153.424 54.914,153.493 54.898,153.567 62.999,157.968 69.613,158.71 69.714,157.504 73.574,157.836 
	73.582,157.838 73.676,157.94 73.718,157.912 73.831,157.941 73.934,158.06 74.072,158.313 74.115,158.474 74.208,158.611 
	74.34,158.775 74.551,158.945 74.725,158.974 74.838,159.056 74.867,159.182 75.022,159.273 75.183,159.518 75.226,159.615 
	75.555,159.821 75.657,159.998 75.701,160.122 75.856,160.258 76.054,160.417 76.062,160.514 76.241,160.622 76.464,160.677 
	76.594,160.804 76.733,160.915 76.813,161.007 76.954,161.052 77.014,161.224 77.124,161.244 77.198,161.436 77.233,161.643 
	77.249,161.828 77.329,161.886 77.467,162.079 77.511,162.193 77.594,162.327 77.606,162.607 77.568,162.829 77.607,162.922 
	77.628,163.135 77.746,163.321 77.863,163.525 77.913,163.781 78.111,163.986 78.296,164.158 78.442,164.215 78.626,164.34 
	78.818,164.612 79.022,164.762 79.209,164.864 79.489,164.915 79.648,164.987 79.794,165.17 80.105,165.294 80.264,165.379 
	80.405,165.53 80.832,165.773 80.96,165.753 81.2,165.787 81.267,165.669 81.329,165.514 81.427,165.471 81.527,165.318 
	81.715,165.246 81.829,165.113 81.786,164.99 81.836,164.817 81.952,164.694 81.94,164.574 81.999,164.366 82.076,164.277 
	82.173,164.105 82.283,163.962 82.326,163.798 82.479,163.776 82.625,163.77 82.718,163.697 82.822,163.702 83,163.745 
	83.108,163.488 83.224,163.45 83.396,163.546 83.551,163.614 83.658,163.69 83.757,163.707 83.88,163.668 84.013,163.658 
	84.227,163.698 84.382,163.712 84.607,163.777 84.748,163.787 84.969,163.711 85.106,163.794 85.224,163.81 85.348,163.869 
	85.424,164.069 85.565,164.134 85.567,164.302 85.686,164.458 85.833,164.46 85.963,164.587 86.146,164.629 86.297,164.886 
	86.554,165.038 86.645,165.136 86.77,165.254 86.823,165.414 86.93,165.52 87.056,165.599 87.119,165.981 87.166,166.125 
	87.285,166.306 87.382,166.388 87.389,166.502 87.451,166.627 87.465,166.774 87.589,166.896 87.712,167.006 87.731,167.167 
	87.78,167.27 87.854,167.404 87.894,167.578 87.972,167.742 88.02,167.877 88.244,168.067 88.482,168.214 88.595,168.352 
	88.701,168.572 88.828,168.634 88.895,168.881 88.96,169.017 89.04,169.139 89.144,169.237 89.249,169.303 89.379,169.469 
	89.574,169.522 89.738,169.576 89.803,169.667 89.809,169.884 89.883,169.879 89.89,170.01 89.909,170.114 89.808,170.399 
	89.909,170.428 89.969,170.498 90.014,170.619 90.052,170.79 90.023,170.93 90.012,171.145 90.159,171.261 90.223,171.403 
	90.303,171.534 90.451,171.63 90.515,171.776 90.599,171.945 90.621,172.127 90.694,172.411 90.857,172.542 90.891,172.604 
	90.845,172.739 90.916,172.818 91.038,172.775 91.22,172.821 91.386,172.917 91.591,172.882 91.66,172.996 91.861,173.155 
	91.971,173.232 92.071,173.188 92.163,173.231 92.493,173.322 92.631,173.43 92.839,173.553 92.975,173.649 93.103,173.692 
	93.22,173.69 93.363,173.678 93.491,173.724 93.56,173.662 93.724,173.669 94.091,173.672 94.182,173.731 94.335,173.75 
	94.466,173.792 94.622,173.971 94.72,174.016 94.836,174.119 94.94,174.118 95.021,174.22 95.145,174.217 95.174,174.139 
	95.157,174.05 95.224,173.993 95.374,173.956 95.545,173.883 95.67,173.91 95.696,173.851 95.655,173.554 95.546,172.962 
	95.393,172.44 95.211,171.916 95.091,171.429 95.051,170.963 95.088,170.496 95.137,170.272 95.227,169.977 95.315,169.751 
	95.417,169.519 95.583,169.192 95.699,169.003 95.806,168.87 95.809,168.864 95.901,168.669 96.173,168.332 96.394,168.111 
	96.564,167.959 96.77,167.796 97.216,167.524 97.336,167.348 97.48,167.229 97.795,167.006 98.692,166.528 99.562,165.965 
	99.698,165.938 100.134,165.494 100.286,165.367 100.511,165.138 101.022,164.756 101.208,164.604 101.183,164.505 101.318,164.332 
	101.492,164.221 102.492,163.703 102.735,163.594 102.957,163.549 103.195,163.541 103.248,163.505 103.336,163.434 
	103.467,163.367 103.943,163.26 104.243,163.226 104.514,163.185 104.794,163.175 105.237,163.265 105.987,163.522 106.268,163.573 
	106.854,163.646 107.022,163.609 107.233,163.477 107.455,163.445 107.539,163.472 108.052,163.69 108.174,163.635 108.292,163.411 
	108.068,163.36 107.897,163.292 107.929,163.086 108.03,163.016 108.191,162.936 108.357,162.929 108.47,163.044 108.438,163.231 
	108.541,163.22 108.686,163.305 108.726,163.471 108.84,163.546 108.905,163.619 109.056,163.531 109.178,163.661 109.145,163.728 
	109.222,163.798 109.389,163.863 109.391,163.864 109.372,163.95 109.241,164.047 109.386,164.169 109.678,164.22 109.836,164.285 
	110.063,164.311 110.203,164.316 110.369,164.453 110.403,164.581 110.538,164.604 110.69,164.593 110.914,164.522 111.302,164.477 
	111.41,164.472 111.664,164.423 111.922,164.337 112.287,164.029 112.668,163.652 112.761,163.609 113.248,163.628 113.336,163.721 
	113.438,163.734 113.638,163.785 113.774,163.946 113.881,164.002 113.965,164.131 113.88,164.29 113.91,164.511 114.075,164.284 
	114.21,164.137 114.316,164.221 114.504,164.281 114.479,164.182 114.542,164.053 114.656,163.994 114.758,163.775 114.716,163.65 
	114.501,163.666 114.442,163.511 114.268,163.357 114.135,163.394 113.993,163.273 113.832,163.283 113.587,163.274 
	113.461,163.213 113.357,163.065 113.355,162.931 113.249,162.764 113.396,162.643 113.472,162.679 113.695,162.517 
	113.681,162.278 113.986,162.279 113.92,162.161 114.033,161.946 114.031,161.815 114.048,161.629 114.098,161.433 114.079,161.204 
	113.966,161.257 113.815,161.393 113.733,161.491 113.493,161.516 113.383,161.583 113.211,161.759 113.184,162.039 113.074,162.1 
	112.943,162.088 112.832,161.983 112.569,161.919 112.569,161.742 112.708,161.653 112.931,161.543 112.981,161.423 
	113.273,161.219 113.384,161.176 113.446,161.132 113.488,161.018 113.661,160.867 113.774,160.813 114.019,160.719 114.249,160.59 
	114.503,160.496 114.682,160.466 114.867,160.531 115.038,160.544 115.147,160.54 115.227,160.48 115.348,160.486 115.427,160.537 
	115.562,160.495 115.686,160.532 115.737,160.45 115.824,160.454 115.85,160.376 115.916,160.317 116.044,160.352 116.185,160.467 
	116.329,160.442 116.467,160.424 116.512,160.197 116.485,159.933 116.522,159.804 116.547,159.687 116.536,159.535 
	116.647,159.411 116.837,159.472 116.896,159.645 116.938,159.733 116.885,159.913 116.943,160.017 117.077,160.168 
	117.255,160.304 117.247,160.426 117.058,160.562 117.234,160.567 117.604,160.456 117.917,160.327 118.14,160.249 118.366,160.16 
	118.487,160.148 118.743,160.076 119.432,159.827 119.931,159.708 120.448,159.669 120.9,159.697 121.222,159.754 121.442,159.807 
	121.914,159.981 122.21,160.154 122.448,160.224 122.527,160.292 122.748,160.433 122.895,160.438 122.99,160.493 123.002,160.499 
	122.958,160.72 123.022,160.938 123.177,161.181 123.386,161.087 123.639,161.147 123.922,161.25 124.504,160.86 124.672,160.637 
	124.868,160.539 124.949,160.458 124.889,160.257 124.976,160.181 125.122,160.115 125.238,160.152 125.414,160.137 
	125.438,160.059 125.404,159.959 125.328,159.847 125.484,159.685 125.662,159.577 125.734,159.596 125.852,159.525 125.99,159.471 
	126.136,159.457 126.32,159.579 126.677,159.681 126.955,159.788 127.107,159.928 127.234,160.094 127.367,160.244 127.503,160.285 
	127.675,160.328 127.73,160.522 127.77,160.713 128.011,160.815 128.055,160.891 128.183,160.879 128.289,160.964 128.373,161.084 
	128.41,161.225 128.564,161.254 128.65,161.294 128.662,161.431 128.751,161.595 128.84,161.592 128.864,161.443 129.266,161.416 
	129.351,161.52 129.301,161.572 129.469,161.661 129.492,161.787 129.598,161.911 129.701,162.021 129.629,162.188 129.692,162.312 
	129.729,162.522 129.842,162.568 129.843,162.572 129.877,162.763 129.938,162.962 129.946,163.126 129.898,163.312 
	129.861,163.581 129.82,163.81 129.626,164.041 129.628,164.046 129.679,164.227 129.768,164.435 129.774,164.66 129.797,164.882 
	129.958,165.021 130.088,165.161 130.13,165.297 130.171,165.468 130.232,165.422 130.323,165.198 130.374,165.099 130.358,164.973 
	130.49,164.758 130.653,164.796 130.755,164.809 130.814,164.912 130.726,165.054 130.647,165.118 130.53,165.441 130.405,165.667 
	130.184,165.689 130.346,165.913 130.577,166.108 130.787,166.325 131.07,166.746 131.497,167.263 131.661,167.507 131.687,167.661 
	131.775,167.909 131.985,168.208 132.132,168.287 132.262,168.298 132.395,168.189 132.531,168.16 132.617,168.185 132.854,168.433 
	133.019,168.878 133.325,169.484 133.479,169.59 133.601,169.462 133.978,169.592 134.208,169.653 134.309,169.832 134.481,169.876 
	134.634,170.047 134.755,170.278 134.947,170.503 134.979,170.701 134.963,170.942 135.061,171.093 135.241,171.23 135.408,171.175 
	135.626,171.083 135.709,170.975 135.856,170.91 136.03,170.977 136.117,170.944 136.245,170.814 136.497,170.711 136.613,170.703 
	136.622,170.819 136.611,170.989 136.426,171.273 135.925,171.811 135.498,172.121 135.26,172.343 135.388,172.427 135.704,172.253 
	136.394,171.667 136.705,171.231 136.966,170.75 137.171,170.227 137.292,169.854 137.228,169.68 137.135,169.974 136.969,170.101 
	136.868,169.915 136.888,169.708 136.883,169.506 136.946,169.367 136.999,169.152 137.209,169.288 137.235,169.03 137.243,168.86 
	137.176,168.607 137.155,168.459 137.154,168.449 137.112,168.15 137.044,166.996 137.042,166.839 137.029,166.724 136.997,166.556 
	136.958,166.302 136.957,166.298 136.88,166.078 136.607,165.555 136.536,165.463 136.473,165.319 136.131,164.818 135.646,163.938 
	135.108,163.209 134.945,162.891 134.873,162.688 134.827,162.48 134.834,162.274 134.956,162.112 134.75,161.778 134.562,161.6 
	134.139,161.151 133.766,160.714 133.588,160.523 132.931,159.547 132.603,158.988 132.522,158.734 132.464,158.658 
	132.007,157.587 131.904,157.218 131.862,157.187 131.831,157.123 131.771,156.92 131.759,156.654 131.715,156.632 131.648,156.48 
	131.704,156.086 131.662,155.903 131.616,155.807 131.63,155.648 131.603,155.509 131.673,155.462 131.781,155.246 131.812,155.134 
	131.832,154.965 131.766,154.849 131.786,154.697 131.857,154.52 131.912,154.357 131.901,154.253 131.955,154.054 131.903,153.854 
	131.911,153.789 132.011,153.66 132.134,153.368 132.288,153.092 132.405,152.941 132.398,152.843 132.298,152.837 132.324,152.651 
	132.421,152.601 132.598,152.42 132.685,152.244 132.53,152.144 132.428,152.092 132.525,151.979 132.699,152.033 132.816,152.056 
	132.936,151.99 133.103,151.842 133.123,151.702 133.052,151.621 132.964,151.501 132.988,151.4 133.172,151.403 133.28,151.377 
	133.455,151.19 133.571,151.119 133.646,151.013 133.791,150.91 133.958,150.862 134.011,150.755 134.171,150.592 134.179,150.45 
	134.272,150.34 134.453,150.186 134.496,150.051 134.676,149.874 134.729,149.781 134.623,149.681 134.66,149.576 134.772,149.468 
	134.876,149.537 135.001,149.468 135.145,149.455 135.166,149.328 135.163,149.218 135.236,149.145 135.376,148.982 
	135.441,148.823 135.404,148.745 135.393,148.499 135.406,148.281 135.471,148.042 135.563,147.88 135.698,147.548 135.822,147.332 
	135.98,147.116 136.169,146.93 136.433,146.767 136.742,146.543 136.969,146.454 137.271,146.375 137.541,146.369 137.585,146.44 
	137.689,146.428 137.711,146.089 137.778,145.535 137.866,145.278 138.071,144.902 138.368,144.506 138.626,144.253 
	138.767,144.068 138.959,143.886 139.418,143.616 139.791,143.471 140.037,143.468 140.205,143.544 140.27,143.638 140.367,143.254 
	140.455,143.03 140.571,142.805 140.698,142.617 140.844,142.341 141.227,141.854 141.509,141.59 141.741,141.415 141.951,141.335 
	141.932,140.87 141.845,140.314 141.672,139.991 141.126,139.328 140.936,139.121 140.648,138.706 140.21,137.87 140.104,137.729 
	139.945,137.47 139.787,137.17 139.687,137.185 139.607,137.262 139.382,137.265 139.198,137.225 139.097,137.15 139.106,136.912 
	138.987,136.794 138.887,136.687 138.755,136.616 138.789,136.479 138.558,136.236 138.635,136.167 138.706,136.208 
	138.938,136.322 138.947,136.134 138.91,136.013 138.812,135.833 138.717,135.684 138.712,135.514 138.573,135.405 138.571,135.266 
	138.523,135.068 138.616,134.932 138.606,134.776 138.411,134.704 138.156,134.66 137.997,134.593 137.871,134.481 137.71,134.414 
	137.657,134.32 137.372,134.365 137.19,134.414 137.021,134.367 136.905,134.353 136.894,134.273 136.807,134.211 136.714,134.157 
	136.706,134.084 136.629,134.019 136.542,134.064 136.208,134.215 136.068,134.112 136,133.895 135.99,133.629 136.038,133.409 
	136.272,133.342 136.289,133.396 136.188,133.464 136.105,133.664 136.148,133.941 136.286,134.059 136.442,133.929 
	136.529,133.864 136.634,133.775 136.681,133.829 136.785,134.01 136.918,134.073 137.065,134.151 137.34,134.167 137.476,134.129 
	137.658,134.134 137.802,134.265 137.949,134.327 138.049,134.288 138.196,134.357 138.328,134.44 138.265,134.28 138.259,134.171 
	138.163,134.087 138.04,133.949 138.036,133.789 137.968,133.766 137.964,133.626 137.931,133.556 137.665,133.369 137.574,133.236 
	137.533,133.031 137.463,132.915 137.424,132.754 137.337,132.689 137.378,132.59 137.416,132.432 137.353,132.416 137.381,132.312 
	137.408,132.239 137.422,132.14 137.369,132.112 137.394,132.029 137.483,131.922 137.409,131.856 137.377,131.754 137.328,131.626 
	137.101,131.562 137.136,131.475 137.205,131.452 137.281,131.43 137.321,131.344 137.399,131.272 137.468,131.103 137.69,130.74 
	137.825,130.565 137.921,130.534 137.96,130.632 137.907,130.706 137.786,130.805 137.715,130.93 137.706,131.039 137.661,131.134 
	137.617,131.5 137.699,131.55 137.746,131.616 137.802,131.806 137.647,131.792 137.6,132.092 137.635,132.334 137.713,132.283 
	137.708,132.139 137.83,132.055 137.924,132.026 137.947,132.121 138.021,132.278 137.977,132.34 137.844,132.268 137.806,132.436 
	137.673,132.499 137.674,132.588 137.793,132.628 137.81,132.749 137.867,132.751 137.938,132.635 138.01,132.613 138.118,132.701 
	138.167,132.679 138.231,132.839 138.155,132.86 138.096,132.868 138.002,132.909 138.011,133.021 138.055,133.086 137.973,133.251 
	138.149,133.452 138.24,133.541 138.251,133.644 138.346,133.67 138.688,133.889 138.723,134.071 138.845,134.143 138.938,134.142 
	138.894,134.027 138.806,133.869 138.743,133.695 138.938,133.653 139.057,133.639 139.135,133.731 138.987,133.815 
	139.043,133.977 139.209,133.993 139.267,134.152 139.229,134.346 139.284,134.494 139.348,134.471 139.464,134.281 
	139.588,134.247 139.71,134.268 139.566,134.445 139.717,134.554 139.674,134.661 139.525,134.777 139.568,134.884 139.506,135.035 
	139.44,135.451 139.454,135.785 139.486,135.992 139.469,136.223 139.694,136.691 139.778,136.697 139.85,136.595 139.959,136.347 
	139.966,136.192 139.964,136.051 140.024,135.924 140.027,135.815 140.098,135.57 140.044,135.496 140.121,135.253 140.072,135.129 
	140.078,134.974 140.098,134.727 140.163,134.466 140.237,134.338 140.368,134.348 140.421,134.208 140.564,133.59 140.571,133.491 
	140.572,133.232 140.585,132.968 140.61,132.924 140.588,132.568 140.513,132.349 140.356,131.94 140.245,131.688 140.208,131.739 
	140.111,131.749 139.925,131.653 139.73,131.518 139.713,131.449 139.576,131.26 139.438,131.195 139.358,131.003 139.342,130.853 
	139.258,130.661 138.803,130.305 138.731,130.212 138.845,130.123 138.857,130.226 139.014,130.239 139.087,130.321 
	139.189,130.354 139.3,130.41 139.368,130.433 139.48,130.513 139.566,130.504 139.647,130.545 139.768,130.622 139.859,130.709 
	139.927,130.605 140.008,130.567 140.126,130.598 140.322,130.583 140.384,130.652 140.393,130.811 140.356,131.068 
	140.384,131.254 140.455,131.245 140.583,131.171 140.66,131.016 140.69,130.9 140.772,130.645 140.743,130.606 140.781,130.422 
	140.805,130.322 140.889,130.126 140.972,129.976 141.15,129.784 141.208,129.646 141.276,129.425 141.273,129.322 141.273,129.32 
	141.377,128.951 141.448,128.551 141.448,128.55 141.433,128.43 141.371,128.131 141.292,127.548 141.26,127.108 141.225,126.922 
	141.165,126.768 141.069,126.604 141.032,126.631 141.02,126.786 140.882,126.76 140.785,126.781 140.696,126.831 140.569,126.804 
	140.541,126.704 140.651,126.642 140.791,126.492 140.857,126.326 140.9,126.334 140.904,126.335 141.006,126.355 141.126,126.394 
	141.406,126.162 141.671,126.096 141.918,125.981 142.188,125.782 142.282,125.778 142.461,125.687 142.796,125.431 
	142.938,125.283 143.813,124.53 143.966,124.369 144.562,123.854 144.659,123.632 144.53,123.649 144.462,123.701 144.332,123.896 
	144.22,123.839 144.2,123.708 144.108,123.702 144.094,123.888 144.001,123.957 143.853,123.931 143.869,123.8 143.948,123.576 
	143.921,123.541 143.761,123.708 143.656,123.792 143.616,123.899 143.53,123.994 143.455,124.145 143.34,124.318 143.124,124.452 
	142.845,124.584 142.502,124.708 142.363,124.735 142.311,124.799 142.325,124.873 142.192,124.987 141.977,124.991 
	141.837,124.964 141.771,125.045 141.668,125.047 141.664,125.13 141.456,125.26 141.401,125.335 141.294,125.395 141.185,125.4 
	141.177,125.312 141.268,125.203 141.308,125.058 141.4,124.938 141.463,124.914 141.531,124.828 141.614,124.763 141.705,124.743 
	141.762,124.692 141.802,124.599 141.752,124.563 141.827,124.521 141.951,124.456 142.03,124.312 142.177,124.293 142.213,124.261 
	142.234,124.137 142.335,124.066 142.377,123.973 142.379,123.97 142.452,123.874 142.568,123.879 142.73,123.759 142.799,123.803 
	142.927,123.742 142.979,123.668 142.979,123.667 143.083,123.623 143.195,123.636 143.319,123.535 143.438,123.468 
	143.488,123.498 143.547,123.432 143.649,123.388 143.74,123.296 143.791,123.233 143.932,123.229 143.994,123.164 144.128,123.107 
	144.24,123.029 144.367,122.964 144.43,122.988 144.435,123.017 144.565,122.922 144.714,122.835 144.837,122.72 144.956,122.64 
	145.093,122.594 145.113,122.48 145.121,122.342 145.189,122.298 145.27,122.297 145.341,122.269 145.358,122.155 145.439,122.144 
	145.559,122.167 145.633,122.058 145.659,122.014 145.713,121.959 145.816,121.95 145.907,121.884 145.954,121.778 145.979,121.66 
	145.981,121.659 146.075,121.593 146.138,121.583 146.189,121.391 146.355,121.441 146.39,121.556 146.245,121.792 146.044,121.994 
	146.061,122.121 146.216,122.013 146.323,121.912 146.39,121.769 146.51,121.627 146.658,121.484 146.804,121.398 146.831,121.29 
	147.024,121.101 147.133,121.097 147.308,120.932 147.568,120.767 147.608,120.904 147.682,121.099 147.761,121.046 
	147.756,120.837 147.695,120.658 147.695,120.657 147.569,120.36 147.387,120.091 147.281,119.915 147.117,119.786 146.926,119.778 
	146.843,119.842 146.757,119.93 146.899,120.003 146.967,119.958 147.104,119.946 147.252,120.263 147.399,120.301 147.445,120.412 
	147.426,120.482 147.273,120.626 147.114,120.735 147.031,120.832 146.921,120.831 146.687,120.872 146.57,120.855 146.444,120.781 
	146.433,120.66 146.34,120.525 146.24,120.466 146.203,120.507 146.084,120.495 146.012,120.39 146.038,120.262 146.016,120.166 
	145.881,120.066 145.726,119.897 145.578,119.828 145.45,119.834 145.365,119.772 145.293,119.785 145.236,119.917 145.13,119.801 
	145.141,119.695 145.063,119.525 145.188,119.467 145.197,119.338 145.271,119.25 145.192,119.105 145.263,119.045 145.442,118.93 
	145.518,118.887 145.579,118.708 145.523,118.604 145.435,118.604 145.393,118.699 145.298,118.714 145.182,118.637 
	145.056,118.478 144.948,118.253 144.934,118.106 144.946,117.951 144.966,117.835 144.979,117.69 145.032,117.622 145.056,117.441 
	145.076,117.348 145.058,117.184 144.995,117.066 145.002,116.911 145.046,116.828 145.143,116.802 145.213,116.713 
	145.222,116.557 145.28,116.4 145.148,116.368 145.151,116.242 145.225,116.219 145.349,116.134 145.403,116.06 145.345,115.967 
	145.345,115.823 145.357,115.731 145.489,115.687 145.493,115.563 145.622,115.522 145.62,115.422 145.712,115.295 145.822,115.298 
	145.888,115.432 145.93,115.425 145.951,115.338 146.03,115.259 146.049,115.108 146.155,115.032 146.265,114.93 146.293,114.865 
	146.384,114.838 146.429,114.607 146.444,114.562 146.462,114.455 146.569,114.526 146.689,114.658 146.739,114.569 
	146.766,114.442 146.816,114.414 146.828,114.244 147.005,114.181 147.031,114.073 146.954,114.005 146.979,113.879 146.85,113.78 
	146.845,113.659 146.808,113.489 146.978,113.463 147.149,113.568 147.097,113.677 147.311,113.9 147.445,113.748 147.62,113.619 
	147.716,113.795 147.78,113.75 147.775,113.568 147.889,113.437 147.985,113.347 148.183,113.289 148.095,112.946 148.335,112.87 
	148.196,112.807 148.221,112.677 148.23,112.608 148.156,112.504 148.253,112.423 148.315,112.464 148.445,112.509 148.444,112.331 
	148.509,112.313 148.558,112.22 148.64,112.235 148.69,112.138 148.673,112.01 148.719,111.899 148.861,111.815 148.93,111.714 
	149.002,111.799 149.159,111.904 149.241,111.725 149.175,111.655 149.177,111.515 149.205,111.37 149.288,111.326 149.318,111.247 
	149.474,111.254 149.536,111.113 149.62,111 149.7,110.724 149.753,110.621 149.831,110.438 149.722,110.391 "/>
</svg>
