<?xml version="1.0" encoding="utf-8"?>
<!-- Generator: Adobe Illustrator 16.0.4, SVG Export Plug-In . SVG Version: 6.00 Build 0)  -->
<!DOCTYPE svg PUBLIC "-//W3C//DTD SVG 1.1//EN" "http://www.w3.org/Graphics/SVG/1.1/DTD/svg11.dtd">
<svg version="1.1" id="usOutline" xmlns="http://www.w3.org/2000/svg" xmlns:xlink="http://www.w3.org/1999/xlink" x="0px" y="0px"
	 width="79.667px" height="69.531px" viewBox="3.993 0 79.667 69.531" enable-background="new 3.993 0 79.667 69.531"
	 xml:space="preserve">
<g>
	<path fill="#FFFFFF" d="M64.123,35.043c-9.232,0-16.743,7.511-16.743,16.743s7.511,16.745,16.743,16.745
		s16.745-7.513,16.745-16.745S73.355,35.043,64.123,35.043z M64.123,64.446c-6.979,0-12.658-5.681-12.658-12.66
		s5.679-12.658,12.658-12.658s12.661,5.679,12.661,12.658S71.102,64.446,64.123,64.446z"/>
	<path fill="#FFFFFF" d="M51.271,34.5c-6.166-4.109-13.021-9.569-19.994-15.913l6.738-6.693L10.498,4.421l7.284,27.57l6.725-6.679
		c7.449,6.799,14.816,12.679,21.477,17.119L51.271,34.5z"/>
</g>
</svg>
